HIERARCHY
ROOT Hips
{
	OFFSET 0.000000 0.000000 0.000000
	CHANNELS 6 Xposition Yposition Zposition Zrotation Yrotation Xrotation 
	JOINT LHipJoint
	{
		OFFSET 0.000000 0.000000 0.000000
		CHANNELS 3 Zrotation Yrotation Xrotation
		JOINT LeftUpLeg
		{
			OFFSET 1.363060 -1.794630 0.839290
			CHANNELS 3 Zrotation Yrotation Xrotation
			JOINT LeftLeg
			{
				OFFSET 2.448110 -6.726130 0.000000
				CHANNELS 3 Zrotation Yrotation Xrotation
				JOINT LeftFoot
				{
					OFFSET 2.562200 -7.039590 0.000000
					CHANNELS 3 Zrotation Yrotation Xrotation
					JOINT LeftToeBase
					{
						OFFSET 0.157640 -0.433110 2.322550
						CHANNELS 3 Zrotation Yrotation Xrotation
						End Site
						{
							OFFSET 0.000000 0.000000 0.000000
						}
					}
				}
			}
		}
	}
	JOINT RHipJoint
	{
		OFFSET 0.000000 0.000000 0.000000
		CHANNELS 3 Zrotation Yrotation Xrotation
		JOINT RightUpLeg
		{
			OFFSET -1.305520 -1.794630 0.839290
			CHANNELS 3 Zrotation Yrotation Xrotation
			JOINT RightLeg
			{
				OFFSET -2.542530 -6.985550 0.000000
				CHANNELS 3 Zrotation Yrotation Xrotation
				JOINT RightFoot
				{
					OFFSET -2.568260 -7.056230 0.000000
					CHANNELS 3 Zrotation Yrotation Xrotation
					JOINT RightToeBase
					{
						OFFSET -0.164730 -0.452590 2.363150
						CHANNELS 3 Zrotation Yrotation Xrotation
						End Site
						{
							OFFSET 0.000000 0.000000 0.000000
						}
					}
				}
			}
		}
	}
	JOINT LowerBack
	{
		OFFSET 0.000000 0.000000 0.000000
		CHANNELS 3 Zrotation Yrotation Xrotation
		JOINT Spine
		{
			OFFSET 0.028270 2.035590 -0.193380
			CHANNELS 3 Zrotation Yrotation Xrotation
			JOINT Spine1
			{
				OFFSET 0.056720 2.048850 -0.042750
				CHANNELS 3 Zrotation Yrotation Xrotation
				JOINT Neck
				{
					OFFSET 0.000000 0.000000 0.000000
					CHANNELS 3 Zrotation Yrotation Xrotation
					JOINT Neck1
					{
						OFFSET -0.054170 1.746240 0.172020
						CHANNELS 3 Zrotation Yrotation Xrotation
						JOINT Head
						{
							OFFSET 0.104070 1.761360 -0.123970
							CHANNELS 3 Zrotation Yrotation Xrotation
							End Site
							{
								OFFSET 0.000000 0.000000 0.000000
							}
						}
					}
				}
				JOINT LeftShoulder
				{
					OFFSET 0.000000 0.000000 0.000000
					CHANNELS 3 Zrotation Yrotation Xrotation
					JOINT LeftArm
					{
						OFFSET 3.362410 1.200890 -0.311210
						CHANNELS 3 Zrotation Yrotation Xrotation
						JOINT LeftForeArm
						{
							OFFSET 4.983000 -0.000000 -0.000000
							CHANNELS 3 Zrotation Yrotation Xrotation
							JOINT LeftHand
							{
								OFFSET 3.483560 -0.000000 -0.000000
								CHANNELS 3 Zrotation Yrotation Xrotation
								JOINT LeftFingerBase
								{
									OFFSET 0.000000 0.000000 0.000000
									CHANNELS 3 Zrotation Yrotation Xrotation
									JOINT LeftHandIndex1
									{
										OFFSET 0.715260 -0.000000 -0.000000
										CHANNELS 3 Zrotation Yrotation Xrotation
										End Site
										{
											OFFSET 0.000000 0.000000 0.000000
										}
									}
								}
								JOINT LThumb
								{
									OFFSET 0.000000 0.000000 0.000000
									CHANNELS 3 Zrotation Yrotation Xrotation
									End Site
									{
										OFFSET 0.000000 0.000000 0.000000
									}
								}
							}
						}
					}
				}
				JOINT RightShoulder
				{
					OFFSET 0.000000 0.000000 0.000000
					CHANNELS 3 Zrotation Yrotation Xrotation
					JOINT RightArm
					{
						OFFSET -3.136600 1.374050 -0.404650
						CHANNELS 3 Zrotation Yrotation Xrotation
						JOINT RightForeArm
						{
							OFFSET -5.241900 -0.000000 -0.000000
							CHANNELS 3 Zrotation Yrotation Xrotation
							JOINT RightHand
							{
								OFFSET -3.444170 -0.000000 -0.000000
								CHANNELS 3 Zrotation Yrotation Xrotation
								JOINT RightFingerBase
								{
									OFFSET 0.000000 0.000000 0.000000
									CHANNELS 3 Zrotation Yrotation Xrotation
									JOINT RightHandIndex1
									{
										OFFSET -0.622530 -0.000000 -0.000000
										CHANNELS 3 Zrotation Yrotation Xrotation
										End Site
										{
											OFFSET 0.000000 0.000000 0.000000
										}
									}
								}
								JOINT RThumb
								{
									OFFSET 0.000000 0.000000 0.000000
									CHANNELS 3 Zrotation Yrotation Xrotation
									End Site
									{
										OFFSET 0.000000 0.000000 0.000000
									}
								}
							}
						}
					}
				}
			}
		}
	}
}
MOTION
Frames: 8
Frame Time: 0.008333
-0.112337 17.183109 21.581738 -2.929238 -6.685732 21.710867 -1.475780 -4.138796 -5.307011 -14.221950 2.423141 -48.330947 -1.744934 4.887181 11.061974 0.984425 -2.788933 1.669407 0.121000 -2.242700 -6.176700 0.746580 1.027408 -0.493852 19.791282 -6.133389 -7.843728 -0.509822 -6.975000 20.139667 -1.821826 26.463562 -6.533237 -0.136500 2.381200 -6.560500 4.002767 4.111508 -9.681937 0.491462 4.044207 -9.926222 -1.363629 2.366986 0.057301 -2.521249 -0.594535 -7.778911 3.790221 -0.946711 9.608313 0.391300 -0.292900 2.776800 12.915847 8.257308 0.987381 -101.028716 28.475300 -20.072178 4.197302 -13.324293 -0.232579 -0.804313 -0.921073 25.513654 15.790683 -13.370338 -3.474700 -7.125000 0.000000 0.000000 -7.712700 17.447500 5.091900 -12.987203 -7.608877 -0.850858 91.504848 18.404605 34.844658 -33.647882 50.490024 -13.683041 0.273257 -0.580849 -12.985950 -156.727594 71.262136 -158.032700 7.125000 0.000000 0.000000 162.142600 43.148000 -179.154900
-0.110993 17.174546 21.694249 -3.073597 -6.781096 21.680397 -1.470125 -4.127403 -5.314899 -13.580051 1.936285 -48.004500 -1.729978 4.920589 11.119976 0.953393 -2.593222 1.557969 0.064850 -1.178122 -3.244860 0.736045 1.004243 -0.482623 19.815848 -5.708188 -7.288130 -0.490023 -6.935864 20.048907 -1.792898 26.401724 -6.389836 -0.143745 2.442598 -6.730576 4.037262 4.164202 -9.623394 0.487798 4.106938 -9.910650 -1.359227 2.400665 0.070913 -2.472322 -0.593766 -7.830272 3.799570 -0.948663 9.568305 0.384287 -0.292946 2.769230 12.910568 8.256364 0.991706 -101.011285 28.663002 -20.349300 4.192583 -13.316882 -0.240390 -0.786240 -0.921983 25.212354 15.737376 -13.081881 -3.382510 -7.125000 0.000000 0.000000 -7.758261 17.737400 5.072347 -12.978467 -7.602662 -0.851643 91.423294 18.428743 34.837791 -34.116612 50.810393 -14.001721 0.286633 -0.598603 -12.975518 -156.845674 71.248002 -158.158051 7.125000 0.000000 0.000000 162.125416 43.113818 -179.138413
-0.109649 17.165983 21.806761 -3.217957 -6.876461 21.649928 -1.464470 -4.116011 -5.322788 -12.938152 1.449429 -47.678053 -1.715023 4.953997 11.177978 0.922361 -2.397512 1.446530 0.008700 -0.113544 -0.313021 0.725510 0.981079 -0.471394 19.840414 -5.282988 -6.732532 -0.470224 -6.896728 19.958147 -1.763970 26.339887 -6.246435 -0.150990 2.503997 -6.900652 4.071756 4.216896 -9.564850 0.484133 4.169670 -9.895078 -1.354824 2.434345 0.084525 -2.423395 -0.592998 -7.881634 3.808918 -0.950616 9.528297 0.377274 -0.292993 2.761659 12.905289 8.255420 0.996031 -100.993855 28.850704 -20.626422 4.187864 -13.309470 -0.248201 -0.768167 -0.922894 24.911055 15.684068 -12.793423 -3.290319 -7.125000 0.000000 0.000000 -7.803822 18.027301 5.052795 -12.969732 -7.596448 -0.852429 91.341740 18.452881 34.830925 -34.585342 51.130762 -14.320400 0.300008 -0.616358 -12.965086 -156.963755 71.233868 -158.283402 7.125000 0.000000 0.000000 162.108232 43.079635 -179.121925
-0.105860 17.158222 21.925090 -3.197721 -6.979009 21.623974 -1.460929 -4.096820 -5.322352 -12.522957 0.904016 -47.436510 -1.688704 5.077098 11.468968 0.864251 -2.081322 1.186719 0.013315 0.496216 1.364254 0.707408 0.961132 -0.462266 19.689321 -5.028380 -6.290056 -0.457491 -6.853514 19.894365 -1.637848 26.392844 -5.380041 -0.128266 2.292008 -6.313969 3.944228 4.231731 -9.602081 0.461773 4.206783 -9.882060 -1.325484 2.453680 0.125496 -2.381670 -0.578733 -7.890476 3.853358 -0.940198 9.511442 0.386111 -0.285331 2.752870 12.898377 8.254650 1.000915 -100.985814 29.032539 -21.095265 4.175642 -13.287810 -0.255022 -0.749045 -0.923993 24.857790 15.679999 -12.419571 -3.183655 -7.125000 0.000000 0.000000 -7.821223 18.403060 4.998631 -12.970070 -7.595271 -0.851296 91.281285 18.433807 34.736000 -34.802491 51.288974 -14.482405 0.287843 -0.620617 -12.254768 -159.502404 71.354401 -160.695824 7.125000 0.000000 0.000000 161.370905 43.006751 -179.045695
-0.101628 17.150605 22.044471 -3.147718 -7.082856 21.598838 -1.457771 -4.076218 -5.320411 -12.148761 0.348012 -47.210321 -1.660330 5.216420 11.802094 0.801245 -1.743344 0.900074 0.028920 1.023722 2.814638 0.687938 0.941767 -0.453519 19.506460 -4.804625 -5.868039 -0.446035 -6.809563 19.835461 -1.494147 26.466562 -4.382892 -0.100121 2.030578 -5.590426 3.787397 4.239720 -9.656632 0.436031 4.239264 -9.869505 -1.291634 2.470420 0.171414 -2.341248 -0.562028 -7.891629 3.904144 -0.927542 9.498774 0.397815 -0.276274 2.743860 12.891171 8.253912 1.005901 -100.979471 29.213313 -21.598782 4.162062 -13.263574 -0.261665 -0.729732 -0.925126 24.849381 15.684834 -12.030276 -3.074374 -7.125000 0.000000 0.000000 -7.833530 18.794346 4.938208 -12.972050 -7.595005 -0.849816 91.224646 18.406917 34.625149 -34.974141 51.417860 -14.616075 0.271057 -0.622435 -11.417875 -162.478815 71.499289 -163.521866 7.125000 0.000000 0.000000 160.503341 42.926869 -178.958659
-0.094841 17.128898 22.166546 -3.045220 -7.157496 21.573298 -1.461251 -4.050178 -5.312904 -11.951110 -0.163885 -47.040731 -1.627296 5.390902 12.229257 0.731224 -1.381649 0.645805 0.030575 1.125472 3.094204 0.680701 0.910333 -0.430540 19.254172 -4.799418 -5.350700 -0.452087 -6.810543 19.872635 -1.553385 26.029537 -4.636758 -0.334614 3.212301 -8.922527 3.596928 4.231626 -9.710311 0.406151 4.259543 -9.871982 -1.259201 2.481910 0.176989 -2.313780 -0.560057 -7.852073 3.957315 -0.935540 9.485543 0.413321 -0.277978 2.726602 12.879071 8.251386 1.008029 -100.967235 29.426710 -22.054442 4.154116 -13.249861 -0.269946 -0.709565 -0.924920 24.854938 15.672075 -11.615011 -2.955040 -7.125000 0.000000 0.000000 -7.860529 19.211633 4.881619 -12.969432 -7.589502 -0.842631 91.120595 18.254506 34.756351 -35.424143 51.714315 -14.921893 0.280702 -0.634886 -11.400138 -164.046785 71.071964 -165.061588 7.125000 0.000000 0.000000 160.308028 42.414948 -178.690239
-0.086925 17.100969 22.289811 -2.919543 -7.219239 21.547581 -1.467663 -4.021735 -5.302940 -11.831412 -0.656306 -46.896132 -1.592203 5.580909 12.697942 0.658106 -1.009481 0.405831 0.026070 1.039226 2.856785 0.678865 0.873571 -0.401276 18.971228 -4.890713 -4.791271 -0.465870 -6.831362 19.952232 -1.702231 25.366990 -5.443021 -0.685077 5.031262 -14.045433 3.391605 4.216431 -9.763604 0.374445 4.274433 -9.881096 -1.227395 2.491081 0.164751 -2.292034 -0.564593 -7.794542 4.011539 -0.952657 9.472063 0.430505 -0.284434 2.705703 12.864809 8.248071 1.008895 -100.952397 29.654513 -22.488970 4.148658 -13.240796 -0.278951 -0.689019 -0.924123 24.866661 15.651547 -11.188279 -2.831268 -7.125000 0.000000 0.000000 -7.894015 19.640399 4.826723 -12.964785 -7.581688 -0.832926 90.995609 18.046669 34.994432 -35.997054 52.084760 -15.303725 0.302018 -0.652033 -11.744108 -164.992845 70.391973 -166.033326 7.125000 0.000000 0.000000 160.409553 41.712258 -178.341727
-0.079682 17.073256 22.413506 -2.876706 -7.212235 21.532364 -1.468695 -3.998690 -5.291868 -11.744679 -1.042165 -46.780541 -1.553373 5.768757 13.174412 0.579843 -0.609140 0.330001 0.026762 0.445541 1.224503 0.668599 0.844659 -0.382231 18.807307 -4.896923 -4.316887 -0.487246 -6.872933 20.101023 -1.758335 24.968623 -5.727930 -0.915690 6.084230 -17.033217 3.279606 4.200873 -9.821454 0.354587 4.271069 -9.890577 -1.216609 2.489453 0.164816 -2.274725 -0.575759 -7.790118 4.081116 -0.977827 9.479661 0.456576 -0.294028 2.707096 12.853690 8.242690 1.006139 -100.923957 29.830518 -23.123623 4.114884 -13.158888 -0.274043 -0.686692 -0.923816 25.097840 15.650334 -11.035004 -2.787028 -7.125000 0.000000 0.000000 -7.901517 19.797408 4.803759 -12.959305 -7.573732 -0.823749 90.872961 17.816890 35.122759 -36.592328 52.460014 -15.707737 0.320936 -0.669377 -11.918566 -165.684520 69.960275 -166.739080 7.125000 0.000000 0.000000 160.441062 41.258630 -178.113767
